<svg id="visual" viewBox="0 0 900 600" width="900" height="600" xmlns="http://www.w3.org/2000/svg" xmlns:xlink="http://www.w3.org/1999/xlink" version="1.1"><path d="M0 462L21.5 458.5C43 455 86 448 128.8 446.5C171.7 445 214.3 449 257.2 454.5C300 460 343 467 385.8 467.2C428.7 467.3 471.3 460.7 514.2 459.2C557 457.7 600 461.3 642.8 463.7C685.7 466 728.3 467 771.2 461.7C814 456.3 857 444.7 878.5 438.8L900 433L900 601L878.5 601C857 601 814 601 771.2 601C728.3 601 685.7 601 642.8 601C600 601 557 601 514.2 601C471.3 601 428.7 601 385.8 601C343 601 300 601 257.2 601C214.3 601 171.7 601 128.8 601C86 601 43 601 21.5 601L0 601Z" fill="#212121" stroke-linecap="round" stroke-linejoin="miter"></path></svg>