<svg id="visual" viewBox="0 0 900 600" width="900" height="600" xmlns="http://www.w3.org/2000/svg" xmlns:xlink="http://www.w3.org/1999/xlink" version="1.1"><path d="M0 465L21.5 464.5C43 464 86 463 128.8 458.8C171.7 454.7 214.3 447.3 257.2 442.7C300 438 343 436 385.8 438.3C428.7 440.7 471.3 447.3 514.2 449.7C557 452 600 450 642.8 452.2C685.7 454.3 728.3 460.7 771.2 463.8C814 467 857 467 878.5 467L900 467L900 601L878.5 601C857 601 814 601 771.2 601C728.3 601 685.7 601 642.8 601C600 601 557 601 514.2 601C471.3 601 428.7 601 385.8 601C343 601 300 601 257.2 601C214.3 601 171.7 601 128.8 601C86 601 43 601 21.5 601L0 601Z" fill="#EFF2FB" stroke-linecap="round" stroke-linejoin="miter"></path></svg>