<svg id="visual" viewBox="0 0 900 600" width="900" height="600" xmlns="http://www.w3.org/2000/svg"
    xmlns:xlink="http://www.w3.org/1999/xlink" version="1.1">
    <g transform="translate(482.5224085040118 272.00739809182323)">
        <path
            d="M128.9 -177.4C163 -152.7 183.7 -109.6 195.4 -65.4C207 -21.3 209.5 23.8 219.6 95.5C229.6 167.3 247 265.7 211.7 282.3C176.3 299 88.2 233.9 13.7 215C-60.7 196.1 -121.5 223.5 -171.7 211.6C-222 199.8 -261.7 148.9 -282.1 90.6C-302.4 32.3 -303.4 -33.3 -283.3 -91.1C-263.2 -149 -222.1 -199.1 -171.4 -218.4C-120.7 -237.8 -60.3 -226.4 -6.5 -217.5C47.4 -208.6 94.8 -202.2 128.9 -177.4"
            fill="#6cb6c8"></path>
    </g>
</svg>